<?xml version="1.0" encoding="utf-8"?>
<!-- Generator: Adobe Illustrator 28.3.0, SVG Export Plug-In . SVG Version: 6.00 Build 0)  -->
<svg version="1.1" id="Layer_1" xmlns="http://www.w3.org/2000/svg" xmlns:xlink="http://www.w3.org/1999/xlink" x="0px" y="0px"
	 viewBox="0 0 200 75" style="enable-background:new 0 0 200 75;" xml:space="preserve">
<style type="text/css">
	.st0{fill:url(#SVGID_1_);}
	.st1{fill:url(#SVGID_00000089553428098437546210000014767915542178508717_);}
	
		.st2{fill:none;stroke:url(#SVGID_00000057854584371031336870000017680600187552272026_);stroke-width:0.567;stroke-miterlimit:5.0314;}
	.st3{fill:url(#SVGID_00000134957451642094752460000011198228633148317856_);}
	
		.st4{fill:none;stroke:url(#SVGID_00000154421813317294522660000003746697377339662991_);stroke-width:0.567;stroke-miterlimit:5.0314;}
	.st5{fill:#FFFFFF;}
</style>
<linearGradient id="SVGID_1_" gradientUnits="userSpaceOnUse" x1="-14.7377" y1="149.396" x2="-14.7377" y2="108.0807" gradientTransform="matrix(1.2579 0 0 -1.2579 50.7987 199.0155)">
	<stop  offset="0" style="stop-color:#A4C1FF"/>
	<stop  offset="1" style="stop-color:#0E78F9"/>
</linearGradient>
<path class="st0" d="M24.7,11.1c1,0,1.9,0,2.8,0h9.3c0.9,0,1.9,0,2.8,0c2.6,0,5.2,0,6.9,0.1c6.4,0.4,10.8,4.3,11.4,10.9
	c0.1,2.4,0.1,5.2,0.1,8.6v0c0,0.6,0,1.2,0,1.8v9.3c0,0.6,0,1.2,0,1.8c0,3.4,0,6.2-0.1,8.6c-0.6,6.6-5,10.5-11.4,10.9
	c-1.8,0.1-4.4,0.1-6.9,0.1c-1,0-1.9,0-2.8,0h-9.3c-0.9,0-1.9,0-2.8,0c-2.6,0-5.2,0-6.9-0.1C11.4,62.6,7,58.7,6.4,52.1
	c-0.1-2.4-0.1-5.2-0.1-8.6v0c0-0.6,0-1.2,0-1.8v-9.3c0-0.6,0-1.2,0-1.8v0c0-3.4,0-6.2,0.1-8.6c0.6-6.6,5-10.5,11.4-10.9
	C19.6,11.1,22.2,11.1,24.7,11.1z"/>
<g>
	
		<linearGradient id="SVGID_00000091010859830114461800000013376337480612700347_" gradientUnits="userSpaceOnUse" x1="-18.6467" y1="136.5734" x2="-18.6467" y2="120.996" gradientTransform="matrix(1.2579 0 0 -1.2579 50.7987 199.0155)">
		<stop  offset="0" style="stop-color:#FFFFFF"/>
		<stop  offset="1" style="stop-color:#C5D4F7"/>
	</linearGradient>
	<path style="fill:url(#SVGID_00000091010859830114461800000013376337480612700347_);" d="M14.7,29.6c0-1.3,1.1-2.4,2.4-2.4h16.8
		c3.3,0,6,2.7,6,6v11.2c0,1.3-1.1,2.4-2.4,2.4H20.8c-3.3,0-6-2.7-6-6V29.6z"/>
	
		<linearGradient id="SVGID_00000054225182597133026410000005290805678032047545_" gradientUnits="userSpaceOnUse" x1="-18.6467" y1="136.5734" x2="-18.6467" y2="120.996" gradientTransform="matrix(1.2579 0 0 -1.2579 50.7987 199.0155)">
		<stop  offset="0" style="stop-color:#FFFFFF"/>
		<stop  offset="1" style="stop-color:#637ACA"/>
	</linearGradient>
	
		<path style="fill:none;stroke:url(#SVGID_00000054225182597133026410000005290805678032047545_);stroke-width:0.567;stroke-miterlimit:5.0314;" d="
		M17.1,27.5h16.8c3.2,0,5.8,2.6,5.8,5.8v11.2c0,1.2-0.9,2.1-2.1,2.1H20.8c-3.2,0-5.8-2.6-5.8-5.8V29.6C15,28.5,16,27.5,17.1,27.5z"
		/>
</g>
<g>
	
		<linearGradient id="SVGID_00000036211000566879626090000001125695962483665304_" gradientUnits="userSpaceOnUse" x1="-4.0961" y1="136.4232" x2="-4.0961" y2="121.1081" gradientTransform="matrix(1.2579 0 0 -1.2579 50.7987 199.0155)">
		<stop  offset="0" style="stop-color:#FFFFFF"/>
		<stop  offset="1" style="stop-color:#C5D4F7"/>
	</linearGradient>
	<path style="fill:url(#SVGID_00000036211000566879626090000001125695962483665304_);" d="M41.5,34.2c0-0.8,0.4-1.6,1-2.1l4.8-4.2
		c1-0.9,2.6-0.2,2.6,1.2v16.1c0,1.3-1.6,2.1-2.6,1.2l-4.4-3.7c-0.9-0.7-1.4-1.8-1.4-3V34.2z"/>
	
		<linearGradient id="SVGID_00000127756491606161266670000012652871886367606965_" gradientUnits="userSpaceOnUse" x1="-4.0961" y1="136.4231" x2="-4.0961" y2="121.1081" gradientTransform="matrix(1.2579 0 0 -1.2579 50.7987 199.0155)">
		<stop  offset="0" style="stop-color:#FFFFFF"/>
		<stop  offset="1" style="stop-color:#637ACA"/>
	</linearGradient>
	
		<path style="fill:none;stroke:url(#SVGID_00000127756491606161266670000012652871886367606965_);stroke-width:0.567;stroke-miterlimit:5.0314;" d="
		M42.6,32.2l4.8-4.2c0.8-0.7,2.1-0.1,2.1,1v16.1c0,1.1-1.3,1.7-2.1,1L43,42.3c-0.8-0.7-1.3-1.7-1.3-2.8v-5.4
		C41.7,33.4,42.1,32.7,42.6,32.2z"/>
</g>
<path class="st5" d="M73.3,188.1h8.2l6.4,12.8h0.3l6.4-12.8h8.2l-11.2,20.3v10.2h-7.3v-10.2L73.3,188.1z M132.8,203.4
	c0,3.4-0.6,6.2-1.9,8.5c-1.3,2.3-3,4.1-5.2,5.3c-2.2,1.2-4.7,1.8-7.4,1.8c-2.7,0-5.2-0.6-7.4-1.8c-2.2-1.2-3.9-3-5.2-5.3
	c-1.3-2.3-1.9-5.2-1.9-8.5c0-3.4,0.6-6.2,1.9-8.5c1.3-2.3,3-4.1,5.2-5.3c2.2-1.2,4.7-1.8,7.4-1.8c2.7,0,5.2,0.6,7.4,1.8
	c2.2,1.2,4,3,5.2,5.3C132.2,197.2,132.8,200,132.8,203.4z M125.3,203.4c0-2-0.3-3.7-0.8-5c-0.6-1.4-1.4-2.4-2.4-3.1
	c-1-0.7-2.3-1.1-3.8-1.1c-1.5,0-2.7,0.4-3.8,1.1c-1.1,0.7-1.9,1.7-2.4,3.1c-0.6,1.4-0.8,3-0.8,5c0,2,0.3,3.7,0.8,5
	c0.6,1.4,1.4,2.4,2.4,3.1c1.1,0.7,2.3,1.1,3.8,1.1c1.5,0,2.7-0.4,3.8-1.1c1.1-0.7,1.9-1.7,2.4-3.1C125,207,125.3,205.4,125.3,203.4z
	 M165.9,203.4c0,3.4-0.6,6.2-1.9,8.5c-1.3,2.3-3,4.1-5.2,5.3c-2.2,1.2-4.7,1.8-7.4,1.8c-2.7,0-5.2-0.6-7.4-1.8
	c-2.2-1.2-3.9-3-5.2-5.3c-1.3-2.3-1.9-5.2-1.9-8.5c0-3.4,0.6-6.2,1.9-8.5c1.3-2.3,3-4.1,5.2-5.3c2.2-1.2,4.7-1.8,7.4-1.8
	c2.7,0,5.2,0.6,7.4,1.8c2.2,1.2,4,3,5.2,5.3C165.3,197.2,165.9,200,165.9,203.4z M158.4,203.4c0-2-0.3-3.7-0.8-5
	c-0.6-1.4-1.4-2.4-2.4-3.1c-1-0.7-2.3-1.1-3.8-1.1c-1.5,0-2.7,0.4-3.8,1.1c-1.1,0.7-1.9,1.7-2.4,3.1c-0.6,1.4-0.8,3-0.8,5
	c0,2,0.3,3.7,0.8,5c0.6,1.4,1.4,2.4,2.4,3.1c1.1,0.7,2.3,1.1,3.8,1.1c1.5,0,2.7-0.4,3.8-1.1c1.1-0.7,1.9-1.7,2.4-3.1
	C158.1,207,158.4,205.4,158.4,203.4z M170.2,188.1h9.1l7.7,18.9h0.4l7.7-18.9h9.1v30.5h-7.2v-18.7h-0.3l-7.3,18.5H185l-7.3-18.6
	h-0.3v18.8h-7.2V188.1z"/>
<g>
	<path class="st5" d="M68.8,27.4h0.3l-0.2,0.3L68.8,27.4z M69.7,27.4h0.4l-1,1.3L69,28.3L69.7,27.4z M70.8,27.4h0.4l-1.7,2.3
		l-0.1-0.4L70.8,27.4z M71.8,27.4h0.4l-2.5,3.3l-0.1-0.4L71.8,27.4z M72.9,27.4h0.4l-3.2,4.3l-0.1-0.4L72.9,27.4z M73.7,27.7
		l0.1,0.4l-3.4,4.5l-0.1-0.4L73.7,27.7z M74,28.7l0.1,0.4l-3.4,4.6l-0.1-0.4L74,28.7z M74.3,29.7l0.1,0.4L71,34.6l-0.1-0.4
		L74.3,29.7z M74.6,30.7l0.1,0.4l-3.4,4.5l-0.1-0.4L74.6,30.7z M74.9,31.7l0.1,0.4l-3.4,4.5l-0.1-0.4L74.9,31.7z M75.2,32.7l0.1,0.4
		l-3.4,4.6l-0.1-0.4L75.2,32.7z M75.5,33.6l0.1,0.4l-3.4,4.5L72,38.2L75.5,33.6z M75.8,34.7l0.1,0.4l-3.4,4.5l-0.1-0.4L75.8,34.7z
		 M76.1,35.6l0.1,0.4l-3.4,4.6l-0.1-0.4L76.1,35.6z M76.4,36.6l0.1,0.4l-3.4,4.5l-0.1-0.4L76.4,36.6z M76.7,37.6l0.1,0.4l-3.4,4.5
		l-0.1-0.4L76.7,37.6z M77,38.6l0.1,0.4l-3.4,4.6l-0.1-0.4L77,38.6z M77.3,39.6l0.1,0.4L74,44.5l-0.1-0.4L77.3,39.6z M77.6,40.6
		l0.1,0.4l-3.4,4.5l-0.1-0.4L77.6,40.6z M77.9,41.6L78,42l-3.4,4.5l-0.1-0.4L77.9,41.6z M78.2,42.6l0.1,0.4l-3.4,4.5l-0.1-0.4
		L78.2,42.6z M78.5,43.6l0.1,0.4l-3.4,4.5l-0.1-0.4L78.5,43.6z M86.4,34.5l-0.3,0.9L75.5,49.5l-0.1-0.4L86.4,34.5z M85.7,36.8
		l-0.3,0.9l-9.6,12.8l-0.1-0.4L85.7,36.8z M85,39.1l-0.3,0.9l-8.6,11.4L76,51.1L85,39.1z M84.3,41.4L84,42.4l-7.6,10.1l-0.1-0.4
		L84.3,41.4z M83.6,43.8l-0.3,0.9l-6.6,8.7l-0.1-0.4L83.6,43.8z M82.6,47l-5.1,6.8h-0.4l5.8-7.7L82.6,47z M78.5,53.8h-0.4l4-5.4
		l-0.3,0.9L78.5,53.8z M87.1,32.2l-0.3,0.9l-8,10.6l0.3-0.9L87.1,32.2z M79.6,53.8h-0.4l2.3-3l-0.3,0.9L79.6,53.8z M87.8,29.8
		l-0.3,0.9l-8,10.6l0.3-0.9L87.8,29.8z M88.5,27.5l-0.3,0.9l-8,10.6l0.3-0.9L88.5,27.5z M80.5,53.8h-0.3l0.5-0.7L80.5,53.8z
		 M87.6,27.4H88l-7.1,9.4l0.3-0.9L87.6,27.4z M86.5,27.4h0.4l-5.3,7.1l0.3-0.9L86.5,27.4z M85.5,27.4h0.4l-3.6,4.8l0.3-0.9
		L85.5,27.4z M84.4,27.4h0.4L83,29.8l0.3-0.9L84.4,27.4z M83.7,27.4L83.7,27.4l0,0.1L83.7,27.4z"/>
	<path class="st5" d="M95.4,27.2h0.4L91.5,33v-0.6L95.4,27.2z M94.4,27.2h0.4l-3.3,4.4v-0.5L94.4,27.2z M93.3,27.2h0.4l-2.3,3v-0.5
		L93.3,27.2z M92.3,27.2h0.4l-1.2,1.6v-0.5L92.3,27.2z M91.5,27.2h0.2l-0.2,0.3V27.2z M95.9,28.1v0.5l-4.4,5.9v-0.5L95.9,28.1z
		 M95.9,29.5V30l-4.4,5.9v-0.5L95.9,29.5z M95.9,30.8v0.6l-4.4,5.9v-0.5L95.9,30.8z M95.9,32.2v0.6l-4.4,5.9v-0.6L95.9,32.2z
		 M95.9,33.6v0.6l-4.4,5.9v-0.6L95.9,33.6z M95.9,35v0.6l-4.4,5.9v-0.6L95.9,35z M95.9,36.4v0.5l-4.4,5.9v-0.6L95.9,36.4z
		 M95.9,37.8v0.5l-4.4,5.9v-0.5L95.9,37.8z M95.9,39.2v0.5l-4.4,5.9v-0.5L95.9,39.2z M95.9,40.5v0.6L91.5,47v-0.5L95.9,40.5z
		 M95.9,41.9v0.6l-4.4,5.9v-0.5L95.9,41.9z M95.9,43.3v0.6l-4.4,5.9v-0.6L95.9,43.3z M95.9,44.7v0.6l-4.4,5.9v-0.6L95.9,44.7z
		 M95.9,46.1v0.5l-4.4,5.9V52L95.9,46.1z M95.9,47.5V48l-4.2,5.6h-0.2v-0.3L95.9,47.5z M92.7,53.7h-0.4l3.6-4.8v0.5L92.7,53.7z
		 M93.8,53.7h-0.4l2.6-3.4v0.5L93.8,53.7z M94.8,53.7h-0.4l1.5-2v0.6L94.8,53.7z M95.9,53.7h-0.4l0.5-0.6L95.9,53.7L95.9,53.7z"/>
	<path class="st5" d="M106,27.4c0.2,0,0.4,0,0.4,0l-7.5,10v-0.6L106,27.4z M104.9,27.4h0.4l-6.5,8.6v-0.6L104.9,27.4z M103.9,27.4
		h0.4l-5.4,7.2V34L103.9,27.4z M102.8,27.4h0.4l-4.4,5.8v-0.5L102.8,27.4z M101.8,27.4h0.4l-3.3,4.4v-0.5L101.8,27.4z M100.7,27.4
		h0.4l-2.3,3v-0.6L100.7,27.4z M99.6,27.4h0.4L98.9,29v-0.6L99.6,27.4z M98.9,27.4H99l-0.2,0.2V27.4z M103.3,32.5v0.3l-4.4,5.9v-0.6
		l8.1-10.8c0.1,0,0.2,0,0.4,0l-3.8,5.1H103.3z M103.3,33.7v0.6l-4.4,5.9v-0.6L103.3,33.7z M103.3,35.1v0.5l-4.4,5.9V41L103.3,35.1z
		 M103.3,36.5V37l-4.4,5.9v-0.5L103.3,36.5z M103.3,37.9v0.5l-4.4,5.9v-0.5L103.3,37.9z M103.3,39.2v0.6l-4.4,5.9v-0.5L103.3,39.2z
		 M103.3,40.6v0.6l-4.4,5.9v-0.6L103.3,40.6z M103.3,42v0.6l-4.4,5.9v-0.6L103.3,42z M103.3,43.4V44l-4.4,5.9v-0.6L103.3,43.4z
		 M103.3,44.8v0.5l-4.4,5.9v-0.6L103.3,44.8z M103.3,46.2v0.5l-4.4,5.9v-0.5L103.3,46.2z M103.3,47.6v0.5L99,53.8h-0.2v-0.3
		L103.3,47.6z M103.6,48.6h0.4l-3.9,5.2h-0.4L103.6,48.6z M104.7,48.6h0.4l-3.9,5.2h-0.4L104.7,48.6z M105.7,48.6h0.4l-3.9,5.2h-0.4
		L105.7,48.6z M106.8,48.5c0.2,0,0.3,0,0.5,0l-4,5.3h-0.4L106.8,48.5z M108,48.3c0.2-0.1,0.4-0.1,0.6-0.2l-4.2,5.6h-0.4L108,48.3z
		 M104.6,32.5h-0.4l3.8-5c0.1,0,0.2,0,0.4,0L104.6,32.5z M116.8,38.1c0,0.1,0,0.3,0.1,0.5l-11.5,15.2h-0.4l4.6-6.1
		c0.5-0.3,0.9-0.7,1.3-1.1c0.4-0.6,0.8-1.2,1-2L116.8,38.1z M105.7,32.5h-0.4l3.7-4.8c0.2,0.1,0.3,0.1,0.3,0.1L105.7,32.5z
		 M116.9,39.8l-10.5,13.9c-0.1,0-0.3,0-0.4,0l10.9-14.5C116.9,39.4,116.9,39.6,116.9,39.8z M106.7,32.5c-0.1,0-0.3,0-0.4,0l3.5-4.6
		c0.1,0,0.2,0.1,0.3,0.1L106.7,32.5z M107.5,53.7c-0.2,0-0.3,0-0.4,0l9.9-13.1c0,0.2,0,0.4,0,0.6L107.5,53.7z M107.6,32.7
		c-0.2,0-0.3-0.1-0.3-0.1l3.3-4.4c0.1,0,0.2,0.1,0.3,0.1L107.6,32.7z M108.5,32.9c-0.1,0-0.2,0-0.3-0.1l3.2-4.3
		c0.1,0.1,0.2,0.1,0.3,0.2L108.5,32.9z M108.7,53.5c-0.2,0-0.4,0.1-0.5,0.1l8.6-11.4c0,0.2,0,0.4,0,0.6L108.7,53.5z M109.3,33.3
		c-0.1,0-0.2-0.1-0.3-0.2l3.1-4.1c0.1,0.1,0.2,0.1,0.3,0.2L109.3,33.3z M110,53.1c-0.2,0.1-0.3,0.1-0.5,0.2l7.2-9.5
		c0,0.3-0.1,0.5-0.1,0.7L110,53.1z M110,33.8c-0.1-0.1-0.2-0.1-0.3-0.2l3.1-4c0,0,0.1,0.1,0.3,0.2L110,33.8z M110.6,34.3
		c-0.1-0.1-0.2-0.2-0.2-0.2l3.1-4c0.1,0.1,0.1,0.1,0.2,0.3L110.6,34.3z M111.1,35c-0.1-0.1-0.1-0.2-0.2-0.3l3.1-4
		c0.1,0.1,0.1,0.1,0.1,0.2l0.1,0.1L111.1,35z M111.6,52.4c-0.2,0.1-0.4,0.2-0.7,0.3l5.3-7.1c-0.1,0.3-0.2,0.6-0.3,0.9L111.6,52.4z
		 M111.6,35.8c0-0.1-0.1-0.2-0.2-0.3l3.1-4.1c0.1,0.1,0.1,0.2,0.2,0.3L111.6,35.8z M111.9,36.7c0-0.1-0.1-0.2-0.1-0.4l3.2-4.2
		c0.1,0.1,0.1,0.2,0.2,0.3L111.9,36.7z M112.2,37.7c0-0.2-0.1-0.3-0.1-0.4l3.3-4.4c0.1,0.2,0.1,0.3,0.2,0.3L112.2,37.7z M112.2,43.3
		c0-0.2,0.1-0.4,0.1-0.7l4.3-5.7c0,0.2,0,0.3,0.1,0.5L112.2,43.3z M112.4,38.9c0-0.1,0-0.3-0.1-0.5l3.5-4.6c0,0.1,0.1,0.3,0.1,0.4
		L112.4,38.9z M112.5,40.2c0-0.2,0-0.4,0-0.5l3.7-4.9c0,0.1,0.1,0.2,0.1,0.4L112.5,40.2z M112.4,41.6c0-0.2,0-0.4,0-0.6l4-5.3
		c0,0.1,0.1,0.3,0.1,0.4L112.4,41.6z M114.2,50.2c-0.3,0.4-0.7,0.8-1.1,1.2l2.2-2.9C114.9,49.1,114.6,49.6,114.2,50.2z"/>
	<path class="st5" d="M124.3,32.7v0.5l-4.4,5.9v-0.6l8.3-11.1h0.4l-4,5.3H124.3z M127.2,27.4h0.4l-7.7,10.2v-0.5L127.2,27.4z
		 M126.1,27.4h0.4l-6.7,8.8v-0.5L126.1,27.4z M125.1,27.4h0.4l-5.6,7.4v-0.5L125.1,27.4z M124,27.4h0.4l-4.6,6.1v-0.6L124,27.4z
		 M123,27.4h0.4l-3.5,4.7v-0.6L123,27.4z M121.9,27.4h0.4l-2.5,3.3v-0.6L121.9,27.4z M120.9,27.4h0.4l-1.4,1.9v-0.6L120.9,27.4z
		 M119.9,27.4h0.4l-0.4,0.5V27.4z M124.3,33.9v0.6l-4.4,5.9v-0.6L124.3,33.9z M124.3,35.3v0.6l-4.4,5.9v-0.6L124.3,35.3z
		 M124.3,36.7v0.5l-4.4,5.9v-0.6L124.3,36.7z M127.5,38.1h0.4l-8,10.6v-0.5L127.5,38.1z M126.5,38.1h0.4l-7,9.2v-0.5L126.5,38.1z
		 M125.4,38.1h0.4l-6,7.8v-0.5L125.4,38.1z M124.3,38.1h0.4l-4.9,6.5V44L124.3,38.1z M124.3,43.7v0.6l-4.4,5.9v-0.6L124.3,43.7z
		 M124.3,45.1v0.6l-4.4,5.9V51L124.3,45.1z M124.3,46.5V47l-4.4,5.9v-0.6L124.3,46.5z M124.3,47.9v0.5l-4.1,5.4h-0.4v0L124.3,47.9z
		 M121.3,53.8h-0.4l4-5.2h0.4L121.3,53.8z M122.4,53.8h-0.4l4-5.2h0.4L122.4,53.8z M123.4,53.8H123l4-5.2h0.4L123.4,53.8z
		 M124.5,53.8h-0.4l3.9-5.2h0.4L124.5,53.8z M125.2,43.1h-0.4l3.8-5h0.4L125.2,43.1z M125.5,53.8h-0.4l3.9-5.2h0.4L125.5,53.8z
		 M125.7,32.7h-0.4l4-5.3h0.4L125.7,32.7z M126.2,43.1h-0.4l3.8-5h0.4L126.2,43.1z M126.6,53.8h-0.4l3.9-5.2h0.4L126.6,53.8z
		 M126.8,32.7h-0.4l4-5.3h0.4L126.8,32.7z M127.3,43.1h-0.4l3.8-5h0.4L127.3,43.1z M127.6,53.8h-0.4l4-5.2h0.4L127.6,53.8z
		 M127.8,32.7h-0.4l4-5.3h0.4L127.8,32.7z M128.3,43.1h-0.4l3.8-5h0.4L128.3,43.1z M128.7,53.8h-0.4l4-5.2h0.4L128.7,53.8z
		 M128.9,32.7h-0.4l4-5.3h0.4L128.9,32.7z M129.4,43.1H129l3.8-5h0.4L129.4,43.1z M129.7,53.8h-0.4l4-5.2h0.4L129.7,53.8z
		 M129.9,32.7h-0.4l4-5.3h0.4L129.9,32.7z M130.4,43.1H130l3.2-4.3v0.6L130.4,43.1z M130.8,53.8h-0.4l3.9-5.2h0.3v0.2L130.8,53.8z
		 M131,32.7h-0.4l3.7-4.9v0.6L131,32.7z M131.5,43.1h-0.4l2.2-2.9v0.6L131.5,43.1z M131.8,53.8h-0.4l3.2-4.2v0.6L131.8,53.8z
		 M132,32.7h-0.4l2.6-3.5v0.6L132,32.7z M132.5,43.1h-0.4l1.1-1.5v0.6L132.5,43.1z M132.9,53.8h-0.4l2.1-2.8v0.6L132.9,53.8z
		 M133.1,32.7h-0.4l1.6-2.1v0.6L133.1,32.7z M133.2,43.1L133.2,43.1V43V43.1z M133.9,53.8h-0.4l1.1-1.4v0.5L133.9,53.8z M134.1,32.7
		h-0.4l0.6-0.7v0.5L134.1,32.7z"/>
	<path class="st5" d="M145.7,42.9h0.4l-8.2,10.9h-0.4L145.7,42.9z M146.3,40.8l-0.3,0.9l-8.3,11l0.3-0.9L146.3,40.8z M147.1,38.3
		l-0.3,1l-8.3,11l0.3-0.9L147.1,38.3z M146.8,42.9h0.4L139,53.8h-0.4L146.8,42.9z M147.9,35.8l-0.3,1l-8.3,11l0.3-0.9L147.9,35.8z
		 M140,53.8h-0.4l4.3-5.7l-0.3,1L140,53.8z M151.1,30.2l0.1,0.4L140,45.4l0.3-0.9L151.1,30.2z M141.1,53.8h-0.4l2.5-3.2l-0.3,1
		L141.1,53.8z M150.8,29.2l0.1,0.4L140.8,43l0.3-1L150.8,29.2z M150.5,28.2l0.1,0.4l-9,11.9l0.3-1L150.5,28.2z M142,53.8h-0.3
		l0.6-0.8L142,53.8z M150.2,27.4l0.1,0.3l-7.9,10.4l0.3-1l7.3-9.7H150.2z M149,27.4h0.4l-6.2,8.2l0.3-1L149,27.4z M147.8,42.9h0.4
		l-3.9,5.2h-0.4L147.8,42.9z M148,27.4h0.4l-4.4,5.8l0.3-1L148,27.4z M146.9,27.4h0.4l-2.5,3.3l0.3-1L146.9,27.4z M148.8,42.9h0.4
		l-3.9,5.2h-0.4L148.8,42.9z M145.9,27.4h0.4l-0.7,0.9L145.9,27.4z M149.9,42.9h0.4l-3.9,5.2H146L149.9,42.9z M154,38.9l0.1,0.4
		l-6.7,8.8H147L154,38.9z M154.3,39.9l0.1,0.4l-5.9,7.8h-0.4L154.3,39.9z M148.3,35.9l-0.1-0.4l3.3-4.4l0.1,0.4L148.3,35.9z
		 M148.6,36.8l-0.1-0.4l3.3-4.3l0.1,0.4L148.6,36.8z M148.9,37.8l-0.1-0.4l3.3-4.3l0.1,0.4L148.9,37.8z M149.2,38.8l-0.1-0.4
		l3.3-4.3l0.1,0.4L149.2,38.8z M154.6,40.8l0.1,0.4l-5.2,6.8h-0.4L154.6,40.8z M149.5,39.7l-0.1-0.4l3.3-4.4l0.1,0.4L149.5,39.7z
		 M149.9,40.7l-0.1-0.4L153,36l0.1,0.4L149.9,40.7z M150.2,41.7l-0.1-0.4l3.3-4.3l0.1,0.4L150.2,41.7z M154.9,41.8l0.1,0.4l-4.4,5.8
		h-0.4L154.9,41.8z M150.5,42.7l-0.1-0.4l3.3-4.3l0.1,0.4L150.5,42.7z M155.2,42.8l0.1,0.4l-3.7,4.9h-0.4L155.2,42.8z M155.6,43.7
		l0.1,0.4l-3.3,4.4l-0.1-0.4L155.6,43.7z M155.9,44.7l0.1,0.4l-3.3,4.4l-0.1-0.4L155.9,44.7z M156.2,45.7l0.1,0.4l-3.3,4.4l-0.1-0.4
		L156.2,45.7z M156.5,46.7l0.1,0.4l-3.3,4.3l-0.1-0.4L156.5,46.7z M156.8,47.6L157,48l-3.3,4.4l-0.1-0.4L156.8,47.6z M157.1,48.6
		l0.1,0.4l-3.3,4.4l-0.1-0.4L157.1,48.6z M157.4,49.6l0.1,0.4l-2.9,3.8h-0.4L157.4,49.6z M157.8,50.5l0.1,0.4l-2.2,2.9h-0.4
		L157.8,50.5z M158.1,51.5l0.1,0.4l-1.4,1.9h-0.4L158.1,51.5z M158.4,52.5l0.1,0.4l-0.7,0.9h-0.4L158.4,52.5z M158.7,53.4l0.1,0.3
		h-0.3L158.7,53.4z"/>
	<path class="st5" d="M168.8,27.4c0.2,0,0.3,0,0.4,0l-7.5,9.8v-0.5L168.8,27.4z M167.7,27.4h0.4l-6.4,8.5v-0.5L167.7,27.4z
		 M166.7,27.4h0.4l-5.3,7.1v-0.5L166.7,27.4z M165.6,27.4h0.4l-4.3,5.7v-0.6L165.6,27.4z M164.6,27.4h0.4l-3.3,4.3v-0.6L164.6,27.4z
		 M166.2,32.4v0.3l-4.4,5.9v-0.6l8.1-10.7c0.1,0,0.2,0,0.4,0l-3.8,5H166.2z M163.5,27.5h0.4l-2.2,2.9v-0.6L163.5,27.5z M162.5,27.5
		h0.4l-1.2,1.5v-0.5L162.5,27.5z M161.7,27.5h0.1l-0.1,0.1V27.5z M166.2,33.6v0.6l-4.4,5.9v-0.6L166.2,33.6z M166.2,35v0.6l-4.4,5.9
		v-0.6L166.2,35z M166.2,36.4v0.5l-4.4,5.9v-0.6L166.2,36.4z M166.2,37.8v0.5l-4.4,5.9v-0.5L166.2,37.8z M166.2,39.2v0.5l-4.4,5.9
		v-0.5L166.2,39.2z M166.2,40.5v0.6l-4.4,5.9v-0.5L166.2,40.5z M169.9,41.3c0.2,0,0.3,0,0.5-0.1l-3.9,5.2h-0.2v0.3l-4.4,5.9V52
		L169.9,41.3z M168.8,41.3h0.4l-7.4,9.8v-0.6L168.8,41.3z M167.7,41.3h0.4l-6.4,8.4v-0.6L167.7,41.3z M166.7,41.3h0.4l-5.3,7.1v-0.6
		L166.7,41.3z M161.7,53.8v-0.4l4.4-5.9V48l-4.3,5.7H161.7z M162.9,53.8h-0.4l3.7-4.9v0.5L162.9,53.8z M164,53.8h-0.4l2.6-3.5v0.5
		L164,53.8z M165,53.8h-0.4l1.6-2.1v0.6L165,53.8z M166.1,53.8h-0.4l0.5-0.7v0.6L166.1,53.8z M171.1,41c0.3-0.1,0.6-0.3,0.8-0.5
		l-4.5,6H167L171.1,41z M167.5,32.4h-0.4l3.7-4.9c0.2,0,0.3,0,0.4,0L167.5,32.4z M177.4,34.1c0,0.1,0,0.2,0.1,0.5l-9,11.8h-0.4
		L177.4,34.1z M168.5,32.4h-0.4l3.6-4.8c0.2,0.1,0.3,0.1,0.3,0.1L168.5,32.4z M177.5,35.3c0,0.2,0,0.4,0.1,0.5l-8,10.6
		c-0.2,0-0.3,0-0.4,0L177.5,35.3z M169.6,32.5c-0.1,0-0.3,0-0.4,0l3.4-4.6c0.1,0.1,0.2,0.1,0.3,0.1L169.6,32.5z M170.5,32.7
		c-0.1,0-0.2,0-0.3-0.1l3.3-4.3c0.1,0.1,0.2,0.1,0.3,0.2L170.5,32.7z M177.6,37C177.6,37,177.6,37.1,177.6,37c0,0.1,0,0.2,0,0.2
		l-6.9,9.1c-0.1,0-0.2,0-0.4,0l7.4-9.7C177.6,36.8,177.6,36.9,177.6,37z M171.3,33c-0.1-0.1-0.2-0.1-0.3-0.2l3.2-4.2
		c0.1,0.1,0.2,0.1,0.3,0.2L171.3,33z M177.6,38.1c0,0.2,0,0.4-0.1,0.6l-5.6,7.4c-0.2,0.1-0.3,0.1-0.5,0.1L177.6,38.1z M172,33.4
		c-0.1-0.1-0.2-0.1-0.2-0.2l3.1-4.1c0.1,0.1,0.2,0.2,0.3,0.2L172,33.4C172,33.4,172,33.4,172,33.4z M172.5,34.1
		c-0.1-0.1-0.1-0.2-0.2-0.3l3.1-4.1c0,0,0,0,0,0s0,0,0,0c0.1,0.1,0.1,0.2,0.2,0.2L172.5,34.1z M172.3,39.9c0.2-0.3,0.3-0.7,0.5-1.1
		l4.3-5.8c0,0.2,0.1,0.3,0.1,0.4L172.3,39.9z M177.4,39.6c0,0.3-0.1,0.5-0.1,0.8l-4,5.2c-0.2,0.1-0.4,0.2-0.6,0.2L177.4,39.6z
		 M172.8,35.1c0-0.2-0.1-0.3-0.1-0.4l3.3-4.3c0.1,0.1,0.1,0.2,0.2,0.3L172.8,35.1z M173,36.3c0-0.2,0-0.4,0-0.5l3.5-4.6
		c0,0.1,0.1,0.2,0.1,0.3L173,36.3z M173,37.7c0-0.2,0-0.4,0-0.6l3.8-5.1c0,0.1,0.1,0.2,0.1,0.4L173,37.7z M176.9,41.7
		c-0.2,0.6-0.5,1.1-0.8,1.6l-0.5,0.6c-0.1,0.1-0.1,0.2-0.2,0.2c-0.3,0.3-0.7,0.6-1.1,0.9L176.9,41.7z"/>
	<path class="st5" d="M187.5,27.4c0.2,0,0.3,0,0.4,0l-7.5,9.8v-0.5L187.5,27.4z M186.5,27.4h0.4l-6.4,8.5v-0.5L186.5,27.4z
		 M185.4,27.4h0.4l-5.3,7.1v-0.5L185.4,27.4z M184.4,27.4h0.4l-4.3,5.7v-0.6L184.4,27.4z M183.3,27.4h0.4l-3.3,4.3v-0.6L183.3,27.4z
		 M184.9,32.4v0.3l-4.4,5.9v-0.6l8.1-10.7c0.1,0,0.2,0,0.4,0l-3.8,5H184.9z M182.3,27.5h0.4l-2.2,2.9v-0.6L182.3,27.5z M181.2,27.5
		h0.4l-1.2,1.5v-0.5L181.2,27.5z M180.5,27.5h0.1l-0.1,0.1V27.5z M184.9,33.6v0.6l-4.4,5.9v-0.6L184.9,33.6z M184.9,35v0.6l-4.4,5.9
		v-0.6L184.9,35z M184.9,36.4v0.5l-4.4,5.9v-0.6L184.9,36.4z M184.9,37.8v0.5l-4.4,5.9v-0.5L184.9,37.8z M184.9,39.2v0.5l-4.4,5.9
		v-0.5L184.9,39.2z M184.9,40.5v0.6l-4.4,5.9v-0.5L184.9,40.5z M188.6,41.3c0.2,0,0.3,0,0.5-0.1l-3.9,5.2h-0.2v0.3l-4.4,5.9V52
		L188.6,41.3z M187.5,41.3h0.4l-7.4,9.8v-0.6L187.5,41.3z M186.5,41.3h0.4l-6.4,8.4v-0.6L186.5,41.3z M185.4,41.3h0.4l-5.3,7.1v-0.6
		L185.4,41.3z M180.5,53.8v-0.4l4.4-5.9V48l-4.3,5.7H180.5z M181.7,53.8h-0.4l3.7-4.9v0.5L181.7,53.8z M182.7,53.8h-0.4l2.6-3.5v0.5
		L182.7,53.8z M183.8,53.8h-0.4l1.6-2.1v0.6L183.8,53.8z M184.8,53.8h-0.4l0.5-0.7v0.6L184.8,53.8z M189.8,41
		c0.3-0.1,0.6-0.3,0.8-0.5l-4.5,6h-0.4L189.8,41z M186.2,32.4h-0.4l3.7-4.9c0.2,0,0.3,0,0.4,0L186.2,32.4z M196.1,34.1
		c0,0.1,0,0.2,0.1,0.5l-9,11.8h-0.4L196.1,34.1z M187.3,32.4h-0.4l3.6-4.8c0.2,0.1,0.3,0.1,0.3,0.1L187.3,32.4z M196.2,35.3
		c0,0.2,0,0.4,0.1,0.5l-8,10.6c-0.2,0-0.3,0-0.4,0L196.2,35.3z M188.3,32.5c-0.1,0-0.3,0-0.4,0l3.4-4.6c0.1,0.1,0.2,0.1,0.3,0.1
		L188.3,32.5z M189.2,32.7c-0.1,0-0.2,0-0.3-0.1l3.3-4.3c0.1,0.1,0.2,0.1,0.3,0.2L189.2,32.7z M196.3,37
		C196.3,37,196.3,37.1,196.3,37c0,0.1,0,0.2,0,0.2l-6.9,9.1c-0.1,0-0.2,0-0.4,0l7.4-9.7C196.3,36.8,196.3,36.9,196.3,37z M190,33
		c-0.1-0.1-0.2-0.1-0.3-0.2l3.2-4.2c0.1,0.1,0.2,0.1,0.3,0.2L190,33z M196.3,38.1c0,0.2,0,0.4-0.1,0.6l-5.6,7.4
		c-0.2,0.1-0.3,0.1-0.5,0.1L196.3,38.1z M190.7,33.4c-0.1-0.1-0.2-0.1-0.2-0.2l3.1-4.1c0.1,0.1,0.2,0.2,0.3,0.2L190.7,33.4
		C190.7,33.4,190.7,33.4,190.7,33.4z M191.3,34.1c-0.1-0.1-0.1-0.2-0.2-0.3l3.1-4.1c0,0,0,0,0,0s0,0,0,0c0.1,0.1,0.1,0.2,0.2,0.2
		L191.3,34.1z M191.1,39.9c0.2-0.3,0.3-0.7,0.5-1.1l4.3-5.8c0,0.2,0.1,0.3,0.1,0.4L191.1,39.9z M196.1,39.6c0,0.3-0.1,0.5-0.1,0.8
		l-4,5.2c-0.2,0.1-0.4,0.2-0.6,0.2L196.1,39.6z M191.6,35.1c0-0.2-0.1-0.3-0.1-0.4l3.3-4.3c0.1,0.1,0.1,0.2,0.2,0.3L191.6,35.1z
		 M191.7,36.3c0-0.2,0-0.4,0-0.5l3.5-4.6c0,0.1,0.1,0.2,0.1,0.3L191.7,36.3z M191.7,37.7c0-0.2,0-0.4,0-0.6l3.8-5.1
		c0,0.1,0.1,0.2,0.1,0.4L191.7,37.7z M195.6,41.7c-0.2,0.6-0.5,1.1-0.8,1.6l-0.5,0.6c-0.1,0.1-0.1,0.2-0.2,0.2
		c-0.3,0.3-0.7,0.6-1.1,0.9L195.6,41.7z"/>
</g>
</svg>
